# xmcd
#
# Track frame offsets:
#	150
#	10659
#	28662
#	46871
#	62002
#	78247
#	97131
#	109316
#	124685
#	141196
#	153731
#	170820
#	181307
#	195940
#
# Disc length: 2769 seconds
# Revision: 0
# Processed by: cddbd v1.5.2PL0 Copyright (c) Steve Scherf et al.
# Submitted via: dBpowerAMP V12.0
#
DISCID=b80acf0e
DTITLE=Pat Thomas - Beef Steak Blues
DYEAR=2013
DGENRE=Blues Mississippi
TTITLE0=Rock Me Baby
TTITLE1=61 Highway
TTITLE2=Beef Steak Blues
TTITLE3=Big Fat Mama
TTITLE4=Standing At The Crossroads
TTITLE5=Sugar Mama
TTITLE6=Red Dress
TTITLE7=It Hurts Me Too
TTITLE8=Mule Plow Line
TTITLE9=Honey Bee
TTITLE10=Dream
TTITLE11=I Should Have Quit You
TTITLE12=Catfish
TTITLE13=Coming Home To You
EXTD=
EXTT0=
EXTT1=
EXTT2=
EXTT3=
EXTT4=
EXTT5=
EXTT6=
EXTT7=
EXTT8=
EXTT9=
EXTT10=
EXTT11=
EXTT12=
EXTT13=
PLAYORDER=
